#tb 0: 32768/785647
0,          0,          0,        1,   276480, 0x5f7a0d4f
0,          1,          1,        1,   276480, 0x5f7a0d4f
0,          2,          2,        1,   276480, 0x5f7a0d4f
0,          3,          3,        1,   276480, 0x5f7a0d4f
0,          4,          4,        1,   276480, 0x5f7a0d4f
0,          5,          5,        1,   276480, 0x5f7a0d4f
0,          6,          6,        1,   276480, 0x5f7a0d4f
0,          7,          7,        1,   276480, 0x5f7a0d4f
0,          8,          8,        1,   276480, 0x5f7a0d4f
0,          9,          9,        1,   276480, 0x5f7a0d4f
0,         10,         10,        1,   276480, 0x5f7a0d4f
0,         11,         11,        1,   276480, 0x5f7a0d4f
0,         12,         12,        1,   276480, 0x5f7a0d4f
0,         13,         13,        1,   276480, 0x5f7a0d4f
0,         14,         14,        1,   276480, 0x5f7a0d4f
0,         15,         15,        1,   276480, 0x5f7a0d4f
0,         16,         16,        1,   276480, 0xc3b80edf
0,         17,         17,        1,   276480, 0x5f7a0d4f
0,         18,         18,        1,   276480, 0x5f7a0d4f
0,         19,         19,        1,   276480, 0x5f7a0d4f
0,         20,         20,        1,   276480, 0xc3b80edf
0,         21,         21,        1,   276480, 0x5f7a0d4f
0,         22,         22,        1,   276480, 0x5f7a0d4f
0,         23,         23,        1,   276480, 0x5f7a0d4f
0,         24,         24,        1,   276480, 0xc3b80edf
0,         25,         25,        1,   276480, 0x5f7a0d4f
0,         26,         26,        1,   276480, 0x5f7a0d4f
0,         27,         27,        1,   276480, 0x5f7a0d4f
0,         28,         28,        1,   276480, 0xc3b80edf
0,         29,         29,        1,   276480, 0x5f7a0d4f
0,         30,         30,        1,   276480, 0x5f7a0d4f
0,         31,         31,        1,   276480, 0x5f7a0d4f
0,         32,         32,        1,   276480, 0xc3b80edf
0,         33,         33,        1,   276480, 0x75641594
0,         34,         34,        1,   276480, 0x32ee3526
0,         35,         35,        1,   276480, 0xcb53479a
0,         36,         36,        1,   276480, 0xe1be6e26
0,         37,         37,        1,   276480, 0x5ce39368
0,         38,         38,        1,   276480, 0x4ec1e418
0,         39,         39,        1,   276480, 0x23c418ae
0,         40,         40,        1,   276480, 0x036a5515
0,         41,         41,        1,   276480, 0x7946efbd
0,         42,         42,        1,   276480, 0xd9aa1382
0,         43,         43,        1,   276480, 0x3863f9c8
0,         44,         44,        1,   276480, 0x33e47330
0,         45,         45,        1,   276480, 0xff6e8038
0,         46,         46,        1,   276480, 0xed3ff087
0,         47,         47,        1,   276480, 0xe7834514
0,         48,         48,        1,   276480, 0x4d5d909d
0,         49,         49,        1,   276480, 0x82eea962
0,         50,         50,        1,   276480, 0x8075bca3
0,         51,         51,        1,   276480, 0xd5dc3185
0,         52,         52,        1,   276480, 0x859e0490
0,         53,         53,        1,   276480, 0x6ceebf3e
0,         54,         54,        1,   276480, 0xada5d62d
0,         55,         55,        1,   276480, 0x991a7628
0,         56,         56,        1,   276480, 0xe169042a
0,         57,         57,        1,   276480, 0x226e52c4
0,         58,         58,        1,   276480, 0xa3fe775c
0,         59,         59,        1,   276480, 0x6b80e99f
